<?xml version="1.0" encoding="utf-8"?>
<!-- Generator: Adobe Illustrator 23.0.1, SVG Export Plug-In . SVG Version: 6.00 Build 0)  -->
<svg version="1.1" id="logo" xmlns="http://www.w3.org/2000/svg" xmlns:xlink="http://www.w3.org/1999/xlink" x="0px" y="0px"
	 viewBox="0 0 256.5 250" style="enable-background:new 0 0 256.5 250;" xml:space="preserve">
<style type="text/css">
	.st0{fill:#FFFFFF;}
	.st1{fill:#FFFFFF;stroke:#9ABD4B;stroke-width:4.4111;stroke-miterlimit:10;}
	.st2{fill:#5D7031;}
	.st3{fill:#FFFFFF;stroke:#FFFFFF;stroke-width:6;stroke-linejoin:round;stroke-miterlimit:10;}
	.st4{fill:#666565;}
	.st5{fill:none;stroke:#9ABD4B;stroke-width:4.4111;stroke-miterlimit:10;}
	.st6{fill:#D8AE58;}
	.st7{fill:#FFFFFF;stroke:#FFFFFF;stroke-width:6;stroke-miterlimit:10;}
	.st8{fill:none;}
	.st9{fill:#666665;}
	.st10{fill:none;stroke:#666665;stroke-width:2;stroke-linecap:round;stroke-linejoin:round;stroke-miterlimit:10;}
	.st11{fill:none;stroke:#666665;stroke-width:2;stroke-miterlimit:10;}
	.st12{fill:none;stroke:#666665;stroke-width:2.1;stroke-miterlimit:10;}
	.st13{fill:none;stroke:#D42027;stroke-width:2;stroke-linejoin:round;stroke-miterlimit:10;}
	.st14{fill:none;stroke:#D42027;stroke-linejoin:round;stroke-miterlimit:10;}
	.st15{fill:none;stroke:#D42027;stroke-width:2;stroke-linecap:round;stroke-linejoin:round;stroke-miterlimit:10;}
	.st16{fill:none;stroke:#D42027;stroke-miterlimit:10;}
</style>
<circle class="st0" cx="131.6" cy="125" r="125"/>
<g id="XMLID_257_">
	<circle id="XMLID_23_" class="st1" cx="131.5" cy="116.9" r="96.7"/>
	<g id="XMLID_222_">
		<path id="XMLID_225_" class="st2" d="M100.9,98.2h2.8L93,75.8L82.3,98.2h2.8l-2.8,5.9h2.8l-2.8,5.9h9.4v5.1c0,0.7,0.6,1.3,1.3,1.3
			l0,0c0.7,0,1.3-0.6,1.3-1.3V110h9.4l-2.8-5.9h2.8L100.9,98.2z"/>
		<path id="XMLID_224_" class="st2" d="M94.3,110h9.4l-2.8-5.9h2.8l-2.8-5.9h2.8L93,75.8v40.7l0,0c0.7,0,1.3-0.6,1.3-1.3
			C94.3,115.1,94.3,110,94.3,110z"/>
	</g>
	<path id="XMLID_43_" class="st3" d="M199.3,138.9c0,0-13-1.5-18,9.6c0,0-1.9,7.8-6.9,10.1c0,0,15.9-4.4,21.1-8c0,0,5.8-6.6,8-8.3"
		/>
	<g id="XMLID_217_">
		<path id="XMLID_220_" class="st2" d="M210,92.8h4.2l-15.8-33l-15.8,33h4.2l-4.2,8.7h4.2l-4.2,8.7h13.8v7.6c0,1.1,0.9,2,2,2l0,0
			c1.1,0,2-0.9,2-2v-7.6h13.8l-4.2-8.7h4.2L210,92.8z"/>
		<path id="XMLID_219_" class="st2" d="M200.3,110.3h13.8l-4.2-8.7h4.2l-4.2-8.7h4.2l-15.8-33v60l0,0c1.1,0,2-0.9,2-2V110.3z"/>
	</g>
	<g id="XMLID_212_">
		<path id="XMLID_216_" class="st2" d="M175.7,95.3h2.4L169,76l-9.2,19.3h2.4l-2.4,5.1h2.4l-2.4,5.1h8.1v4.4c0,0.6,0.5,1.1,1.1,1.1
			l0,0c0.6,0,1.1-0.5,1.1-1.1v-4.4h8.1l-2.4-5.1h2.4L175.7,95.3z"/>
		<path id="XMLID_215_" class="st2" d="M170.1,105.5h8.1l-2.4-5.1h2.4l-2.4-5.1h2.4L169,76v35.1l0,0c0.6,0,1.1-0.5,1.1-1.1V105.5z"
			/>
	</g>
	<g id="XMLID_209_">
		<path id="XMLID_211_" class="st2" d="M71.7,93.9h3.6L61.7,66.6L48.2,93.9h3.6l-3.6,7.2h3.6l-3.6,7.2H60v6.3c0,0.9,0.8,1.6,1.7,1.6
			l0,0c0.9,0,1.7-0.7,1.7-1.6v-6.3h11.8l-3.6-7.2h3.6L71.7,93.9z"/>
		<path id="XMLID_210_" class="st2" d="M63.4,108.4h11.8l-3.6-7.2h3.6l-3.6-7.2h3.6L61.7,66.6v49.6l0,0c0.9,0,1.7-0.7,1.7-1.6V108.4
			z"/>
	</g>
	<path id="XMLID_206_" class="st4" d="M88,119.3"/>
	<circle id="XMLID_205_" class="st5" cx="131.5" cy="116.9" r="96.7"/>
	<g id="XMLID_134_">
		<path id="XMLID_135_" class="st4" d="M34,168.7l-1.2-2.4L18,173.5l-1.1-2.3l14.8-7.2l-1.1-2.4l2.4-1.2l3.4,7.1L34,168.7z"/>
		<path id="XMLID_149_" class="st4" d="M41,175.3l-16.5,9.8l-1.3-2.2l7.8-4.6l-1.4-2.3l-7.8,4.6l-1.3-2.2l16.5-9.8l1.3,2.2l-6.4,3.8
			l1.4,2.3l6.4-3.8L41,175.3z"/>
		<path id="XMLID_153_" class="st4" d="M32.8,189.3l-1.5-2l-3.9,2.2l-1.4-2l17.3-8.8l1.5,2.1L31,194.4l-1.5-2.1L32.8,189.3z
			 M34.8,187.3l5.1-4.6l0-0.1l-6.1,3.4L34.8,187.3z"/>
		<path id="XMLID_156_" class="st4" d="M54,191.8l-14.4,12.7l-1.7-1.9l8.9-7.8l-10,6.5l-1.2-1.3l7.8-9l0,0l-8.9,7.8l-1.7-1.9
			L47.2,184l2.3,2.6l-7.6,8.8l0,0l9.7-6.3L54,191.8z"/>
		<path id="XMLID_180_" class="st4" d="M55.1,196.6l-3.2,3.4l1.9,1.8l-1.9,2L50,202l-4.3,4.5l2.8,2.7l-1.9,2l-4.7-4.5l13.2-13.9
			l4.5,4.3l-1.9,2L55.1,196.6z"/>
		<path id="XMLID_182_" class="st4" d="M61,205.2l0.5-0.6c0.8-1,0.9-1.9,0.4-2.3c-0.5-0.4-1.3-0.2-1.8,0.4c-0.5,0.6-0.8,1.2-0.9,2.3
			l-0.5,4.7c-0.2,1.9-0.4,3.1-1.8,4.8c-1.8,2.1-4.1,2.2-5.7,0.9c-1.6-1.3-1.9-3.6-0.2-5.7l1.3-1.6l2,1.6l-1.1,1.4
			c-0.7,0.9-0.7,1.7-0.2,2.1c0.5,0.4,1.3,0.2,2-0.6c0.6-0.8,0.9-1.6,1-2.6l0.2-3.6c0.3-2.5,0.2-3.3,1.9-5.4c1.6-2,3.9-2.3,5.6-0.9
			c1.7,1.4,1.8,3.7,0.2,5.7l-0.8,1L61,205.2z"/>
		<path id="XMLID_199_" class="st4" d="M65.3,225.1l2.1-7.8c-0.3-0.2-0.6-0.4-0.7-0.4l-4.1,6.5l-2.2-1.4l10.3-16.2l3.6,2.3
			c2.1,1.3,1.8,4,0.1,6.6c-1.5,2.4-3.3,3.5-4.8,3.5l-2.1,8.4L65.3,225.1z M68.2,214.4l0.7,0.4c1.4,0.9,1.9,0.9,3.4-1.5
			c0.8-1.3,1.2-2.5,0.4-3l-1.4-0.9L68.2,214.4z"/>
		<path id="XMLID_203_" class="st4" d="M71.9,228.9l-2.3-1.2l9.2-16.8l2.3,1.2L71.9,228.9z"/>
		<path id="XMLID_218_" class="st4" d="M79.5,232.6l-2.5-1.1l5.2-18.8l2.5,1.1l-4.3,13.7l0,0l7.7-12.1l2.5,1.1L79.5,232.6z"/>
		<path id="XMLID_227_" class="st4" d="M93.1,220.4l-1.6,4.4l2.5,0.9l-0.9,2.6l-2.5-0.9l-2.1,5.9l3.7,1.4l-0.9,2.6l-6.1-2.2l6.6-18
			l5.8,2.1l-0.9,2.6L93.1,220.4z"/>
		<path id="XMLID_229_" class="st4" d="M99.4,239.7l-0.3-8.1c-0.3-0.1-0.7-0.2-0.8-0.2l-2.1,7.5l-2.5-0.7l5.1-18.5l4.1,1.1
			c2.4,0.7,2.9,3.3,2,6.3c-0.8,2.8-2.1,4.3-3.6,4.7l0.4,8.6L99.4,239.7z M99.1,228.5l0.8,0.2c1.6,0.4,2.1,0.3,2.9-2.4
			c0.4-1.5,0.5-2.7-0.5-3l-1.6-0.4L99.1,228.5z"/>
		<path id="XMLID_232_" class="st4" d="M114.5,238.1l-2.5-0.4l-1.1,4.3l-2.4-0.4l5.7-18.5l2.5,0.4l0.1,19.4l-2.5-0.4L114.5,238.1z
			 M114.5,235.3l0.2-6.9l-0.1,0l-1.8,6.7L114.5,235.3z"/>
		<path id="XMLID_235_" class="st4" d="M128.6,224.6l-1.3,19.2l-2.6-0.2l-1.8-11.1h0l-0.8,11l-2.6-0.2l1.3-19.2l2.7,0.2l1.6,10.8h0
			l0.7-10.6L128.6,224.6z"/>
		<path id="XMLID_237_" class="st4" d="M135.3,230l0-1.5c0-0.6-0.5-1.6-1.2-1.5c-0.9,0-1.3,1-1.3,1.6l0.2,11.1
			c0,0.6,0.4,1.6,1.3,1.5c1,0,1.4-0.9,1.4-2.5l-0.1-2.9l-1.4,0l-0.1-2.7l3.7-0.1l0.1,5.9c0.1,2.6-1.1,5-3.7,5
			c-2.9,0.1-3.9-2.3-4-4.2l-0.2-11.1c0-1.9,0.9-4.3,3.8-4.4c2.6-0.1,3.8,2.3,3.9,4.2l0,1.5L135.3,230z"/>
		<path id="XMLID_239_" class="st4" d="M146.9,240.1l0.3,2.7l-5.9,0.6l-1.9-19.1l2.6-0.3l1.6,16.4L146.9,240.1z"/>
		<path id="XMLID_241_" class="st4" d="M149.5,225.8l0.8,4.6l2.6-0.4l0.5,2.7l-2.6,0.4l1,6.2l3.9-0.7l0.5,2.7l-6.4,1.1l-3.2-18.9
			l6.1-1l0.5,2.7L149.5,225.8z"/>
		<path id="XMLID_243_" class="st4" d="M164.4,239.4l-4.3-6.9c-0.3,0.1-0.7,0.2-0.8,0.2l1.9,7.5l-2.5,0.6l-4.7-18.6l4.2-1
			c2.4-0.6,4.1,1.4,4.9,4.4c0.7,2.8,0.3,4.8-0.7,5.9l4.6,7.3L164.4,239.4z M158.7,229.9l0.8-0.2c1.6-0.4,2-0.8,1.3-3.5
			c-0.4-1.5-0.9-2.6-1.9-2.3l-1.6,0.4L158.7,229.9z"/>
		<path id="XMLID_246_" class="st4" d="M169.3,223.4l-0.3-0.7c-0.4-1.3-1.2-1.8-1.8-1.6c-0.6,0.2-0.9,1-0.6,1.8
			c0.3,0.8,0.6,1.3,1.5,2l3.7,2.9c1.5,1.1,2.4,1.9,3.2,4.1c0.9,2.6-0.2,4.6-2.2,5.3c-2,0.7-4-0.3-4.9-2.8l-0.7-1.9l2.5-0.8l0.6,1.7
			c0.4,1.1,1,1.5,1.7,1.3c0.6-0.2,0.9-1,0.5-2c-0.3-1-0.9-1.6-1.6-2.2l-3-2.1c-2-1.6-2.7-2-3.6-4.4c-0.8-2.5,0.1-4.5,2.2-5.3
			c2.1-0.7,4.1,0.4,4.9,2.8l0.4,1.3L169.3,223.4z"/>
		<path id="XMLID_248_" class="st4" d="M185.8,226.5l-2.2,1.1l1.5,4.2l-2.2,1.1l-5.7-18.6l2.3-1.1l11,16l-2.3,1.1L185.8,226.5z
			 M184.2,224.2l-3.7-5.9l-0.1,0l2.3,6.5L184.2,224.2z"/>
		<path id="XMLID_251_" class="st4" d="M189.7,213.7l-0.4-0.7c-0.7-1.2-1.5-1.5-2-1.2c-0.6,0.3-0.7,1.1-0.2,1.9
			c0.4,0.7,0.8,1.2,1.8,1.7l4.2,2.1c1.7,0.8,2.8,1.4,3.9,3.4c1.4,2.4,0.7,4.6-1.1,5.6c-1.8,1.1-4,0.6-5.4-1.8l-1-1.7l2.2-1.3
			l0.9,1.5c0.6,1,1.3,1.3,1.9,0.9c0.5-0.3,0.7-1.1,0.1-2.1c-0.5-0.9-1.2-1.4-2-1.8l-3.3-1.4c-2.3-1.1-3.1-1.4-4.4-3.7
			c-1.3-2.2-0.8-4.5,1.1-5.6c1.9-1.1,4.1-0.4,5.4,1.8l0.7,1.2L189.7,213.7z"/>
		<path id="XMLID_253_" class="st4" d="M197.2,208.8l-0.5-0.6c-0.8-1.1-1.6-1.4-2.1-1c-0.5,0.4-0.6,1.2-0.1,1.9
			c0.5,0.7,0.9,1.1,1.9,1.5l4.4,1.7c1.7,0.7,2.9,1.2,4.2,3c1.6,2.3,1,4.5-0.6,5.7c-1.7,1.2-4,0.9-5.5-1.4l-1.1-1.6l2.1-1.5l1,1.5
			c0.7,1,1.4,1.1,1.9,0.8c0.5-0.4,0.6-1.2-0.1-2.1c-0.6-0.8-1.3-1.3-2.2-1.6l-3.4-1.2c-2.3-1-3.2-1.1-4.7-3.3
			c-1.5-2.1-1.2-4.4,0.6-5.7c1.8-1.3,4-0.7,5.5,1.4l0.8,1.1L197.2,208.8z"/>
		<path id="XMLID_255_" class="st4" d="M205.7,200.3l7.1,8.5c1.3,1.5,1.9,4.1-0.1,5.7c-2.2,1.8-4.5,0.6-5.7-0.9l-7.1-8.5
			c-1.3-1.5-2-3.9,0.2-5.7C202.1,197.7,204.5,198.8,205.7,200.3z M203.8,202c-0.4-0.4-1.4-1-1.9-0.5c-0.7,0.6-0.3,1.6,0,2l7.1,8.5
			c0.4,0.5,1.3,1,2,0.5c0.6-0.5,0.2-1.6-0.2-2L203.8,202z"/>
		<path id="XMLID_259_" class="st4" d="M211.7,196.6l-1.1-1.1c-0.4-0.4-1.4-0.8-1.9-0.3c-0.6,0.6-0.2,1.6,0.2,2l7.8,7.9
			c0.4,0.4,1.4,0.8,2,0.2c0.5-0.5,0.1-1.5-0.3-1.9l-1.1-1.1l1.8-1.8l1.1,1.1c1.4,1.4,2.2,3.9,0.3,5.7c-2,2-4.4,1.1-5.8-0.3l-7.8-7.9
			c-1.4-1.4-2.3-3.8-0.2-5.8c1.8-1.8,4.3-1,5.7,0.4l1.1,1.1L211.7,196.6z"/>
		<path id="XMLID_261_" class="st4" d="M226.7,200.6l-1.7,1.9l-14.3-12.8l1.7-1.9L226.7,200.6z"/>
		<path id="XMLID_263_" class="st4" d="M228.2,191.7l-1.5,2l3.2,3.2l-1.5,1.9l-13.2-14.2l1.6-2l16.9,9.6l-1.6,2L228.2,191.7z
			 M225.8,190.3l-5.9-3.7l0,0.1l4.9,4.9L225.8,190.3z"/>
		<path id="XMLID_266_" class="st4" d="M224.6,176.1l-1.5,2.2l13.6,9.3l-1.5,2.1l-13.6-9.3l-1.5,2.2l-2.2-1.5l4.4-6.5L224.6,176.1z"
			/>
		<path id="XMLID_268_" class="st4" d="M240.8,181l-1.3,2.2l-16.5-9.9l1.3-2.2L240.8,181z"/>
		<path id="XMLID_270_" class="st4" d="M232.3,164.8l9.8,5.1c1.8,0.9,3.3,3,2.1,5.3c-1.3,2.5-3.9,2.3-5.6,1.4l-9.8-5.1
			c-1.8-0.9-3.3-2.9-2-5.4C228,163.9,230.6,163.9,232.3,164.8z M231.2,167.1c-0.5-0.3-1.6-0.4-2,0.3c-0.4,0.8,0.3,1.6,0.8,1.8
			l9.8,5.1c0.6,0.3,1.6,0.4,2-0.4c0.3-0.7-0.4-1.5-0.9-1.8L231.2,167.1z"/>
		<path id="XMLID_273_" class="st4" d="M232.3,154.5l17.8,7.3l-1,2.4l-11.1-1.9l0,0l10.2,4.2l-1,2.4l-17.8-7.3l1-2.5l10.8,1.9l0,0
			l-9.8-4.1L232.3,154.5z"/>
	</g>
	<g id="XMLID_56_">
		<g id="XMLID_491_">
			<path id="XMLID_515_" class="st4" d="M94.2,186.7h-1.9l-0.4,2.6H90l2.3-11.1h2l2.3,11.1h-2L94.2,186.7z M93.9,185.1l-0.6-4h-0.1
				l-0.6,4H93.9z"/>
			<path id="XMLID_513_" class="st4" d="M104.7,178.1v11.1h-2l-2-6.4h0v6.4h-2v-11.1h2.1l1.8,6.2h0v-6.2L104.7,178.1L104.7,178.1z"
				/>
			<path id="XMLID_511_" class="st4" d="M111,181.4v-0.9c0-0.3-0.3-0.9-0.9-0.9c-0.7,0-1,0.6-1,0.9v6.4c0,0.3,0.3,0.9,1,0.9
				c0.7,0,1.1-0.5,1.1-1.4v-1.7h-1.1v-1.6h2.9v3.4c0,1.5-0.9,2.9-2.9,2.9c-2.2,0-3-1.4-3-2.5v-6.4c0-1.1,0.8-2.5,3-2.5
				c2,0,2.9,1.4,2.9,2.5v0.9L111,181.4L111,181.4z"/>
			<path id="XMLID_509_" class="st4" d="M119.9,187.7v1.6h-4.6v-11.1h2v9.6L119.9,187.7L119.9,187.7z"/>
			<path id="XMLID_507_" class="st4" d="M124.1,179.7v2.7h2v1.6h-2v3.6h3v1.6h-5v-11.1h4.8v1.6L124.1,179.7L124.1,179.7z"/>
			<path id="XMLID_504_" class="st4" d="M133.8,189.3l-1.9-4.5c-0.3,0-0.6,0-0.6,0v4.5h-2v-11.1h3.3c1.9,0,2.8,1.4,2.8,3.2
				c0,1.7-0.7,2.7-1.7,3.2l2.1,4.8H133.8z M131.2,183.1h0.6c1.3,0,1.6-0.2,1.6-1.8c0-0.9-0.2-1.6-1-1.6h-1.3
				C131.2,179.7,131.2,183.1,131.2,183.1z"/>
			<path id="XMLID_502_" class="st4" d="M141.4,181.3v-0.5c0-0.8-0.4-1.2-0.9-1.2c-0.5,0-0.9,0.4-0.9,0.9c0,0.5,0.1,0.8,0.6,1.4
				l2,2.3c0.8,0.9,1.3,1.5,1.3,2.8c0,1.6-1.4,2.5-2.9,2.5c-1.6,0-2.9-0.9-2.9-2.5v-1.2h2v1c0,0.7,0.4,1,0.9,1c0.5,0,0.9-0.4,0.9-1
				c0-0.6-0.2-1-0.7-1.5l-1.7-1.7c-1-1.2-1.5-1.6-1.5-3.1c0-1.5,1.2-2.5,2.9-2.5c1.7,0,2.9,1,2.9,2.5v0.8L141.4,181.3L141.4,181.3z"
				/>
			<path id="XMLID_500_" class="st4" d="M145.7,187.3h2v2h-2V187.3z"/>
			<path id="XMLID_497_" class="st4" d="M155.9,180.5v6.4c0,1.1-0.9,2.5-2.9,2.5c-2.2,0-3-1.4-3-2.5v-6.4c0-1.1,0.8-2.5,3-2.5
				C155,178,155.9,179.3,155.9,180.5z M153.9,180.5c0-0.3-0.3-0.9-0.9-0.9c-0.7,0-1,0.6-1,0.9v6.4c0,0.4,0.3,1,1,1
				c0.6,0,0.9-0.6,0.9-1V180.5z"/>
			<path id="XMLID_494_" class="st4" d="M162.7,189.3l-1.9-4.5c-0.3,0-0.6,0-0.6,0v4.5h-2v-11.1h3.3c1.9,0,2.8,1.4,2.8,3.2
				c0,1.7-0.7,2.7-1.7,3.2l2.1,4.8H162.7z M160.2,183.1h0.6c1.3,0,1.6-0.2,1.6-1.8c0-0.9-0.2-1.6-1-1.6h-1.3
				C160.2,179.7,160.2,183.1,160.2,183.1z"/>
			<path id="XMLID_492_" class="st4" d="M170.5,181.4v-0.9c0-0.3-0.3-0.9-0.9-0.9c-0.7,0-1,0.6-1,0.9v6.4c0,0.3,0.3,0.9,1,0.9
				c0.7,0,1.1-0.5,1.1-1.4v-1.7h-1.1v-1.6h2.9v3.4c0,1.5-0.9,2.9-2.9,2.9c-2.2,0-3-1.4-3-2.5v-6.4c0-1.1,0.8-2.5,3-2.5
				c2,0,2.9,1.4,2.9,2.5v0.9L170.5,181.4L170.5,181.4z"/>
		</g>
	</g>
	<g id="XMLID_1_">
		<g id="XMLID_427_">
			<path id="XMLID_446_" class="st4" d="M101.2,57v3h2.2v1.8h-2.2v4h3.4v1.8H99V55.2h5.3V57C104.3,57,101.2,57,101.2,57z"/>
			<path id="XMLID_444_" class="st4" d="M111.1,58.7v-0.5c0-0.9-0.5-1.3-1-1.3c-0.6,0-1,0.4-1,1c0,0.5,0.1,0.9,0.6,1.5l2.2,2.5
				c0.9,1,1.4,1.7,1.4,3.1c0,1.8-1.5,2.8-3.3,2.8c-1.8,0-3.2-1-3.2-2.8v-1.3h2.2v1.1c0,0.8,0.4,1.1,1,1.1c0.5,0,1-0.4,1-1.1
				c0-0.7-0.3-1.1-0.7-1.7l-1.8-1.9c-1.2-1.4-1.7-1.8-1.7-3.5c0-1.7,1.3-2.8,3.2-2.8c1.9,0,3.2,1.1,3.2,2.8v0.9L111.1,58.7
				L111.1,58.7z"/>
			<path id="XMLID_442_" class="st4" d="M122.3,57h-2.3v10.6h-2.2V57h-2.3v-1.7h6.8V57z"/>
			<path id="XMLID_440_" class="st4" d="M123.6,65.4h2.2v2.2h-2.2V65.4z"/>
			<path id="XMLID_438_" class="st4" d="M133.4,55.2h2.2v12.4h-2.2V57h-1v-1.3L133.4,55.2z"/>
			<path id="XMLID_435_" class="st4" d="M138.2,60c0-0.2,0-1.6,0-1.7c0-1.9,1.2-3.3,3.5-3.3c2.2,0,3.2,1.5,3.2,2.8c0,0,0,5.9,0,6.2
				c0,2-1.3,3.7-3.4,3.7c-2.1,0-3.1-1.5-3.1-2.8v-1h2.1v1c0,0.5,0.4,1,1,1c0.8,0,1.1-0.9,1.1-1.9v-2c-0.3,0.4-0.7,0.7-1.5,0.7
				C139.2,62.8,138.2,61.5,138.2,60z M140.4,60c0,0.6,0.5,1,1.1,1c0.7,0,1.2-0.3,1.2-0.7v-2.5c0-0.4-0.4-1-1-1
				c-0.9,0-1.2,0.5-1.2,1.5C140.5,58.5,140.4,59.9,140.4,60z"/>
			<path id="XMLID_431_" class="st4" d="M154.6,64.1c0,2-1.4,3.7-3.5,3.7c-2.2,0-3.6-1.6-3.6-3.7c0-1.7,0.9-2.7,2-3.1
				c-0.8-0.3-1.6-1.5-1.6-2.7c0-1.9,1.1-3.1,3.1-3.1c2,0,3.2,1.1,3.2,3.1c0,1.3-0.8,2.4-1.6,2.7C153.7,61.4,154.6,62.3,154.6,64.1z
				 M152.4,64.1c0-1.1-0.3-2-1.3-2.2c-1,0.2-1.3,1.1-1.3,2.2c0,1.2,0.4,1.9,1.5,1.9C152,66,152.4,65,152.4,64.1z M150,58.3
				c0,0.7,0.3,1.3,1.1,1.6c0.8-0.3,1.1-0.9,1.1-1.6c0-0.9-0.4-1.5-1-1.5C150.4,56.8,150,57.5,150,58.3z"/>
			<path id="XMLID_428_" class="st4" d="M163.9,62.8c0,0.2,0,1.6,0,1.7c0,1.9-1.2,3.3-3.5,3.3c-2.2,0-3.2-1.5-3.2-2.8
				c0,0,0-5.9,0-6.2c0-2,1.3-3.7,3.3-3.7c2.1,0,3.1,1.5,3.1,2.8v0.8h-2.1v-0.8c0-0.5-0.3-1-1-1c-0.8,0-1.1,1-1.1,1.9v1.9
				c0.3-0.4,0.7-0.7,1.5-0.7C162.9,60,163.9,61.3,163.9,62.8z M161.6,62.8c0-0.6-0.5-1-1.1-1c-0.7,0-1.1,0.3-1.1,0.6V65
				c0,0.4,0.4,1,1,1c0.8,0,1.2-0.5,1.2-1.5C161.6,64.4,161.6,62.9,161.6,62.8z"/>
		</g>
	</g>
	<g id="XMLID_194_">
		<circle id="XMLID_197_" class="st6" cx="131.6" cy="35.3" r="4.9"/>
		
			<ellipse id="XMLID_195_" transform="matrix(0.7714 -0.6364 0.6364 0.7714 8.9088 89.7443)" class="st0" cx="129.4" cy="32.5" rx="1" ry="0.6"/>
	</g>
	<g id="XMLID_191_">
		<circle id="XMLID_193_" class="st6" cx="103.6" cy="41.9" r="4.9"/>
		
			<ellipse id="XMLID_192_" transform="matrix(0.7714 -0.6364 0.6364 0.7714 -1.6644 73.4242)" class="st0" cx="101.4" cy="39" rx="1" ry="0.6"/>
	</g>
	<g id="XMLID_188_">
		<circle id="XMLID_190_" class="st6" cx="158.6" cy="41.9" r="4.9"/>
		
			<ellipse id="XMLID_189_" transform="matrix(0.7714 -0.6364 0.6364 0.7714 10.9174 108.4531)" class="st0" cx="156.4" cy="39" rx="1" ry="0.6"/>
	</g>
	<ellipse id="XMLID_187_" class="st0" cx="103.6" cy="43.5" rx="2.5" ry="1.3"/>
	<ellipse id="XMLID_186_" class="st0" cx="131.6" cy="37" rx="2.5" ry="1.3"/>
	<ellipse id="XMLID_185_" class="st0" cx="158.6" cy="43.5" rx="2.5" ry="1.3"/>
	<path id="XMLID_40_" class="st7" d="M146.9,105.9c0,0-3.6-1.9-5.4-2c0,0-14.1-13.3-17.3-15.1c0,0-8.5,13.9-12.3,15
		c0,0-1,1.2,3.4,1.6c0,0,4.2,0,4.6,0.5c0,0,1.5,0.6,1.4,1.4"/>
	<path id="XMLID_37_" class="st7" d="M86.8,109.1c0,0-6.3-3.9-16.2-4.4c0,0-2.9,0.6-5.3,5.5c0,0,0,0.8,1.5,1.7"/>
	<path id="XMLID_11_" class="st7" d="M61.1,132c-1.9-0.3-16.7,6-16.7,6c-29.9,18.7-41.5,16-41.5,16c0-6.3,11.3-24.2,11.3-24.2
		c5.9-7.3,2.4-12.1,2.4-12.1C3.5,90.3,5.1,90.2,5.1,90.2C12.4,90,40.5,103,40.5,103c4.9,2.7,13.2,5.9,13.2,5.9l6.4,2.5
		c1.8,1.1,16.7,0.6,16.7,0.6c29.8-8.6,118.9-8,118.9-8l9.8,0.7c0,0,38.5,4.6,44.3,15.1c0,0-9.1,4.8-14.5,9.8c0,0,7.7-0.8,9.5-1.3
		l6.7-0.5c0,0,0.5,0.5-9.7,7.9c0,0-6.9,3.5-15.8,6l-9.3,2c-7.6,1.9-14.8,5.5-21.2,6.8c0,0-18.6,3.8-49.3,1.7
		c-30.7-2.2-21-3.4-45.1-9.3C76.9,137.2,76.3,134.4,61.1,132z"/>
	<path id="XMLID_12_" class="st7" d="M146.2,144.4c0,0-4.6,19.3-13,21.9c0,0-3.8-3.8-6.4-10.6c-0.9-2.4-1.7-5.1-2.1-8.1
		c0,0,0.4-3,2.9-3.2c0,0,4,1.3,5.9,0"/>
	<path id="XMLID_5_" class="st7" d="M95.9,140.1c0,0-5.1,7.9-12.4,12.7c0,0-3.6,3.8-5.1,3.4c-0.9-0.2-0.4-2.7-0.1-6.2
		c0,0-2.1-6.6-6.8-10.9c0,0-2.3-1.8,0-2.9c0,0,0.5,0.2,6.3-1.2"/>
	<polygon id="XMLID_196_" class="st8" points="120.4,181.2 130.1,181.2 130.1,181.2 	"/>
	<g id="XMLID_294_">
		<path id="XMLID_315_" class="st8" d="M48.2,137.6"/>
	</g>
	<g id="XMLID_114_">
		<path id="XMLID_312_" class="st8" d="M48.2,105.4"/>
	</g>
	<g id="XMLID_173_">
		<polygon id="XMLID_176_" class="st9" points="9.3,99.1 36.4,109.4 8.5,101.5 		"/>
	</g>
	<g id="XMLID_170_">
		<polygon id="XMLID_316_" class="st9" points="14.7,111.8 29.2,114.8 14.4,114.3 		"/>
	</g>
	<g id="XMLID_167_">
		<polygon id="XMLID_174_" class="st9" points="16.2,125.2 29.2,123.6 16.7,127.6 		"/>
	</g>
	<g id="XMLID_164_">
		<polygon id="XMLID_171_" class="st9" points="12.1,132.3 33.9,128.7 12.7,134.8 		"/>
	</g>
	<g id="XMLID_161_">
		<polygon id="XMLID_168_" class="st9" points="7.1,140.3 35.1,132.2 7.9,142.7 		"/>
	</g>
	<g id="XMLID_158_">
		<polygon id="XMLID_165_" class="st9" points="3.3,147.3 34.8,137.6 4.1,149.7 		"/>
	</g>
	<path id="XMLID_157_" class="st9" d="M234.1,117.2c0-0.5-0.3-1-0.8-1c-0.1,0-0.7-0.2-0.8-0.2c-0.4-0.1-0.9-0.1-1.3,0
		c-0.3,0-1.2,0.4-1.4,0.5c-0.7,0.4-0.8,0.5-1.2,1.3c-0.3,0.5-0.2,1.5,0.4,1.7c1.1,0.5,1.8,1.4,3.1,1.1c0.4,0,0.8-0.2,1.1-0.5
		c0.3-0.3,0.5-0.7,0.6-1.2c0.2-0.3,0.2-0.4,0.3-0.7"/>
	<path id="XMLID_22_" class="st10" d="M53.8,133.5c0,0,5.8-7.9,56.8,12.3c0,0-1-0.2,14.1,4.2"/>
	<path id="XMLID_9_" class="st11" d="M143.7,152.2c7,0.3,21,0.7,30.7,0.6c0,0,2,0.1,5.4-0.1"/>
	<g id="XMLID_20_">
		<path id="XMLID_27_" class="st9" d="M199.3,139.1c-1.8-0.1-3.6,0.1-5.4,0.4c-0.4,0.1-0.9,0.2-1.3,0.3c-0.4,0.1-0.8,0.3-1.3,0.4
			c-0.4,0.1-0.8,0.3-1.2,0.5c-0.4,0.2-0.8,0.3-1.2,0.6c-0.4,0.2-0.8,0.4-1.1,0.7l-1.1,0.8c-0.4,0.3-0.7,0.6-1,0.9
			c-0.3,0.3-0.6,0.6-0.9,0.9c-0.3,0.3-0.6,0.6-0.8,1l-0.7,1.1c-0.5,0.7-0.8,1.5-1.2,2.3l0-0.1c-0.3,1.1-0.6,2.1-1,3.1
			c-0.4,1-0.9,2-1.4,2.9c-0.6,0.9-1.2,1.9-2,2.7c-0.4,0.4-0.8,0.8-1.3,1.1c-0.2,0.2-0.5,0.4-0.7,0.5l-0.8,0.4l-0.7-1.9
			c3.6-1.1,7.1-2.4,10.6-3.7c1.7-0.7,3.5-1.3,5.2-2c0.9-0.3,1.7-0.7,2.5-1.1c0.8-0.4,1.6-0.8,2.4-1.2l-0.2,0.2
			c1.4-1.4,2.7-2.7,4.2-4c0.7-0.7,1.5-1.3,2.2-1.9c0.8-0.6,1.5-1.2,2.4-1.7c0.1,0,0.1,0,0.2,0.1c0,0.1,0,0.1,0,0.2
			c-1.3,1.4-2.5,2.9-3.7,4.4l-3.6,4.5c-0.1,0.1-0.1,0.1-0.2,0.2l0,0c-0.4,0.3-0.8,0.6-1.3,0.9l-1.3,0.7c-0.9,0.5-1.7,0.9-2.6,1.3
			c-0.9,0.4-1.8,0.8-2.7,1.1c-0.9,0.3-1.8,0.7-2.7,1c-1.8,0.6-3.6,1.2-5.4,1.7s-3.7,1-5.5,1.5c-0.5,0.1-1.1-0.2-1.2-0.7
			c-0.1-0.5,0.1-0.9,0.5-1.1l0,0l0.6-0.3c0.2-0.1,0.4-0.2,0.6-0.4c0.4-0.2,0.7-0.6,1.1-0.9c0.7-0.7,1.3-1.5,1.8-2.3
			c0.5-0.8,1-1.7,1.4-2.7c0.4-0.9,0.8-1.9,1-2.8l0-0.1l0-0.1c0.5-0.8,0.8-1.7,1.4-2.5l0.8-1.1c0.3-0.4,0.6-0.7,1-1
			c0.3-0.4,0.7-0.7,1-0.9c0.4-0.3,0.7-0.6,1.1-0.9l1.2-0.7c0.4-0.2,0.8-0.4,1.3-0.6c0.4-0.2,0.8-0.4,1.3-0.5
			c0.4-0.2,0.9-0.3,1.3-0.4c0.4-0.1,0.9-0.3,1.3-0.3c0.5-0.1,0.9-0.2,1.4-0.2c1.8-0.3,3.7-0.3,5.5-0.1c0.1,0,0.1,0.1,0.1,0.1
			C199.4,139,199.3,139.1,199.3,139.1z"/>
	</g>
	<g id="XMLID_18_">
		<path id="XMLID_26_" class="st9" d="M146.9,105.9c-0.9-0.3-1.8-0.6-2.7-0.9c-0.5-0.1-0.9-0.3-1.4-0.4c-0.4-0.1-0.9-0.2-1.3-0.2
			l-0.2,0l-0.2-0.2c-3-2.4-5.9-4.9-8.8-7.4c-1.5-1.3-2.9-2.5-4.4-3.7c-0.7-0.6-1.5-1.2-2.2-1.8c-0.4-0.3-0.7-0.6-1.1-0.8
			c-0.4-0.3-0.7-0.5-1.1-0.7l1.7-0.4c-0.9,1.4-1.8,2.8-2.7,4.1c-0.9,1.4-1.9,2.7-2.9,4c-1,1.3-2.1,2.6-3.2,3.8
			c-0.6,0.6-1.2,1.2-1.8,1.8c-0.3,0.3-0.7,0.6-1.1,0.8c-0.4,0.3-0.8,0.5-1.4,0.6l0.4-0.3c0.1-0.1,0.1-0.1,0.1-0.2c0-0.1,0-0.1,0-0.2
			c0,0-0.1-0.1,0,0c0,0,0,0,0.1,0.1c0.1,0.1,0.2,0.1,0.3,0.2c0.1,0.1,0.3,0.1,0.4,0.2c0.6,0.2,1.3,0.3,2,0.4h-0.1
			c0.8,0.1,1.6,0.1,2.4,0.2c0.4,0.1,0.8,0.1,1.2,0.2c0.2,0,0.4,0.1,0.6,0.2c0.1,0,0.2,0.1,0.3,0.1c0.1,0.1,0.2,0.1,0.4,0.2l-0.1-0.1
			c0.3,0.2,0.6,0.4,0.9,0.6c0.2,0.3,0.5,0.6,0.4,1c0-0.4-0.3-0.6-0.6-0.7c-0.3-0.2-0.6-0.3-0.9-0.4l-0.1-0.1c0,0-0.1,0-0.1,0
			c-0.1,0-0.2,0-0.3,0c-0.2,0-0.4,0-0.6,0c-0.4,0-0.8,0-1.1,0c-0.8,0-1.5,0-2.3,0.1h-0.1c-0.7,0-1.5-0.1-2.2-0.2
			c-0.2,0-0.4-0.1-0.6-0.2c-0.2-0.1-0.4-0.2-0.6-0.3s-0.5-0.3-0.7-0.7c-0.1-0.2-0.1-0.5-0.1-0.7c0-0.3,0.1-0.4,0.3-0.7l0.1-0.1
			l0.3-0.1c0.5-0.2,1.1-0.7,1.6-1.2c0.5-0.5,1.1-1.1,1.6-1.7c1-1.2,2-2.5,2.9-3.8c0.9-1.3,1.8-2.7,2.7-4c0.9-1.3,1.8-2.7,2.6-4.1
			l0.7-1.1l1,0.6c0.5,0.3,0.9,0.6,1.3,0.9c0.4,0.3,0.8,0.6,1.2,0.9c0.8,0.6,1.5,1.3,2.2,1.9c1.5,1.3,2.9,2.6,4.3,3.9
			c2.8,2.7,5.5,5.4,8.1,8.2l-0.3-0.1c0.6,0.1,1,0.2,1.5,0.4s0.9,0.4,1.3,0.6C145.3,104.9,146.1,105.4,146.9,105.9z"/>
	</g>
	<g id="XMLID_146_">
		<path id="XMLID_148_" class="st9" d="M140.1,106l-15-13.5l15.8,12.5c0.3,0.2,0.3,0.6,0.1,0.9C140.8,106.2,140.4,106.2,140.1,106
			C140.1,106,140.1,106,140.1,106z"/>
	</g>
	<g id="XMLID_143_">
		<path id="XMLID_145_" class="st9" d="M134,105.9l-9.9-9.7l10.8,8.7c0.3,0.2,0.3,0.6,0.1,0.9C134.7,106.1,134.3,106.2,134,105.9
			C134,105.9,134,105.9,134,105.9z"/>
	</g>
	<g id="XMLID_140_">
		<path id="XMLID_142_" class="st9" d="M128.6,105.5l-6.2-5.9l7,4.9c0.3,0.2,0.4,0.6,0.2,0.9S128.9,105.7,128.6,105.5
			C128.6,105.5,128.6,105.5,128.6,105.5z"/>
	</g>
	<g id="XMLID_137_">
		<path id="XMLID_139_" class="st9" d="M123.9,106.2l-4.9-4.6l5.7,3.7c0.3,0.2,0.4,0.6,0.2,0.9c-0.2,0.3-0.6,0.4-0.9,0.2
			C124,106.2,124,106.2,123.9,106.2z"/>
	</g>
	<g id="XMLID_16_">
		<path id="XMLID_25_" class="st9" d="M86.8,109.1c-1.4-0.4-2.7-0.8-4.1-1.1c-0.7-0.2-1.4-0.3-2-0.5c-0.7-0.2-1.4-0.3-2-0.4
			c-0.7-0.1-1.4-0.3-2-0.4c-0.7-0.1-1.4-0.2-2-0.3c-0.7-0.1-1.4-0.2-2-0.3c-0.7-0.1-1.4-0.1-2-0.2l0.3,0c0,0-0.2,0.1-0.3,0.1
			c-0.1,0-0.2,0.1-0.4,0.1c-0.2,0.1-0.5,0.2-0.7,0.4c-0.5,0.3-0.9,0.7-1.3,1.1c-0.4,0.4-0.8,0.9-1.2,1.3c-0.4,0.5-0.7,1-1.1,1.5
			l0.1-0.3c0-0.1,0,0,0,0c0,0,0,0.1,0,0.1c0,0.1,0,0.1,0,0.2c0,0.2,0.1,0.3,0.2,0.5c0.2,0.3,0.4,0.6,0.7,0.9
			c-0.4-0.1-0.8-0.2-1.2-0.5c-0.2-0.1-0.4-0.3-0.5-0.4c-0.1-0.1-0.2-0.2-0.2-0.3c0-0.1-0.1-0.1-0.1-0.2c0-0.1-0.1-0.1-0.1-0.3l0-0.1
			l0.1-0.2c0.2-0.6,0.5-1.3,0.8-1.9c0.3-0.6,0.7-1.2,1.1-1.8c0.4-0.6,0.9-1.1,1.5-1.6c0.3-0.2,0.6-0.5,0.9-0.6
			c0.2-0.1,0.3-0.2,0.5-0.3c0.2-0.1,0.3-0.2,0.7-0.2l0.1,0l0.2,0c1.5,0.1,2.9,0.2,4.3,0.4c1.4,0.2,2.8,0.6,4.2,1
			c1.4,0.5,2.7,1,4,1.7C84.5,107.3,85.7,108.1,86.8,109.1z"/>
	</g>
	<path id="XMLID_133_" class="st9" d="M192.3,112.6c-0.1-0.1-0.1-0.2-0.1-0.2c0-0.3-0.2-0.7-0.6-0.7c-0.1,0-0.5-0.1-0.6-0.2
		c-0.3-0.1-0.6-0.1-0.9,0c-0.2,0-0.8,0.3-1,0.4c-0.5,0.3-0.7,0.7-1.1,1.2c-0.2,0.3-0.3,0.8,0.1,1c0.8,0.4,1.6,0.9,2.5,0.7
		c0.3,0,0.6-0.1,0.8-0.3c0.2-0.2,0.3-0.5,0.4-0.8c0.1-0.2,0.1-0.3,0.2-0.5C192.1,113.1,192.3,112.7,192.3,112.6z"/>
	<path id="XMLID_132_" class="st9" d="M174.1,112.8c0-0.1-0.1-0.1-0.1-0.1c0-0.2-0.1-0.4-0.3-0.4c0,0-0.3-0.1-0.4-0.1
		c-0.2-0.1-0.4-0.1-0.6,0c-0.1,0-0.5,0.2-0.6,0.2c-0.3,0.2-0.4,0.4-0.6,0.7c-0.1,0.2-0.2,0.5,0.1,0.6c0.5,0.2,1,0.6,1.5,0.4
		c0.2,0,0.4-0.1,0.5-0.2c0.1-0.1,0.2-0.3,0.3-0.5c0.1-0.1,0.1-0.2,0.1-0.3C174,113.1,174.2,112.9,174.1,112.8z"/>
	<path id="XMLID_131_" class="st9" d="M80.3,108.6c0-0.1-0.1-0.1-0.1-0.1c0-0.2-0.1-0.4-0.3-0.4c0,0-0.3-0.1-0.4-0.1
		c-0.2-0.1-0.4-0.1-0.6,0c-0.1,0-0.5,0.2-0.6,0.2c-0.3,0.2-0.4,0.4-0.6,0.7c-0.1,0.2-0.2,0.5,0.1,0.6c0.5,0.2,1,0.6,1.5,0.4
		c0.2,0,0.4-0.1,0.5-0.2c0.1-0.1,0.2-0.3,0.3-0.5c0.1-0.1,0.1-0.2,0.1-0.3C80.2,108.9,80.3,108.7,80.3,108.6z"/>
	<path id="XMLID_130_" class="st9" d="M70.4,109.9C70.4,109.9,70.3,109.8,70.4,109.9c-0.1-0.2-0.1-0.4-0.3-0.4c0,0-0.2-0.1-0.2-0.1
		c-0.1,0-0.2,0-0.4,0c-0.1,0-0.3,0.1-0.4,0.2c-0.2,0.1-0.3,0.3-0.4,0.5c-0.1,0.1-0.1,0.3,0,0.4c0.3,0.2,0.6,0.4,1,0.3
		c0.1,0,0.2-0.1,0.3-0.1c0.1-0.1,0.1-0.2,0.2-0.3c0-0.1,0.1-0.1,0.1-0.2C70.3,110.1,70.4,109.9,70.4,109.9z"/>
	<path id="XMLID_129_" class="st9" d="M74.1,107.4C74.1,107.3,74.1,107.3,74.1,107.4c-0.1-0.2-0.1-0.3-0.2-0.3c0,0-0.1,0-0.2-0.1
		c-0.1,0-0.2,0-0.3,0c-0.1,0-0.2,0.1-0.3,0.1c-0.2,0.1-0.2,0.2-0.3,0.4c-0.1,0.1-0.1,0.2,0,0.3c0.2,0.1,0.5,0.3,0.7,0.2
		c0.1,0,0.2,0,0.2-0.1c0.1-0.1,0.1-0.2,0.1-0.2c0-0.1,0-0.1,0.1-0.1C74.1,107.5,74.1,107.4,74.1,107.4z"/>
	<path id="XMLID_8_" class="st12" d="M195.5,150.6c6.4-1.3,13.6-5,21.2-6.8l9.3-2c8.8-2.5,15.8-6,15.8-6c10.2-7.4,9.7-7.9,9.7-7.9
		l-6.7,0.5c-1.7,0.5-9.5,1.3-9.5,1.3c5.4-5.1,14.5-9.8,14.5-9.8c-5.9-10.4-44.3-15.1-44.3-15.1l-9.8-0.7c0,0-89.1-0.6-118.9,8
		c0,0-14.8,0.4-16.7-0.6l-6.4-2.5c0,0-8.4-3.2-13.2-5.9c0,0-28-13-35.3-12.8c0,0-1.6,0.2,11.6,27.4c0,0,3.5,4.9-2.4,12.1
		c0,0-11.3,17.9-11.3,24.2c0,0,11.6,2.8,41.5-15.9c0,0,14.8-6.3,16.7-6"/>
	<path id="XMLID_127_" class="st13" d="M242.1,126.8"/>
	<path id="XMLID_126_" class="st9" d="M180,119.8c0-0.1-0.1-0.1-0.1-0.1c0-0.2-0.1-0.4-0.3-0.4c0,0-0.3-0.1-0.4-0.1
		c-0.2-0.1-0.4-0.1-0.6,0c-0.1,0-0.5,0.2-0.6,0.2c-0.3,0.2-0.4,0.4-0.6,0.7c-0.1,0.2-0.2,0.5,0.1,0.6c0.5,0.2,1,0.6,1.5,0.4
		c0.2,0,0.4-0.1,0.5-0.2c0.1-0.1,0.2-0.3,0.3-0.5c0.1-0.1,0.1-0.2,0.1-0.3C179.9,120.1,180,119.8,180,119.8z"/>
	<path id="XMLID_125_" class="st9" d="M137.1,114.5c0-0.1-0.1-0.1-0.1-0.1c0-0.2-0.1-0.4-0.3-0.4c0,0-0.3-0.1-0.4-0.1
		c-0.2-0.1-0.4-0.1-0.6,0c-0.1,0-0.5,0.2-0.6,0.2c-0.3,0.2-0.4,0.4-0.6,0.7c-0.1,0.2-0.2,0.5,0.1,0.6c0.5,0.2,1,0.6,1.5,0.4
		c0.2,0,0.4-0.1,0.5-0.2c0.1-0.1,0.2-0.3,0.3-0.5c0.1-0.1,0.1-0.2,0.1-0.3C137,114.8,137.1,114.5,137.1,114.5z"/>
	<path id="XMLID_124_" class="st9" d="M93,117c-0.1-0.1-0.1-0.2-0.1-0.2c0-0.3-0.2-0.7-0.6-0.7c-0.1,0-0.5-0.1-0.6-0.2
		c-0.3-0.1-0.6-0.1-0.9,0c-0.2,0-0.8,0.3-1,0.4c-0.5,0.3-0.7,0.7-1.1,1.2c-0.2,0.3-0.3,0.8,0.1,1c0.8,0.4,1.6,0.9,2.5,0.7
		c0.3,0,0.6-0.1,0.8-0.3c0.2-0.2,0.3-0.5,0.4-0.8c0.1-0.2,0.1-0.3,0.2-0.5C92.9,117.5,93.1,117.1,93,117z"/>
	<path id="XMLID_123_" class="st9" d="M97.4,128.3c-0.1-0.1-0.1-0.2-0.1-0.2c0-0.3-0.2-0.7-0.6-0.7c-0.1,0-0.5-0.1-0.6-0.2
		c-0.3-0.1-0.6-0.1-0.9,0c-0.2,0-0.8,0.3-1,0.4c-0.5,0.3-0.7,0.7-1.1,1.2c-0.2,0.3-0.3,0.8,0.1,1c0.8,0.4,1.6,0.9,2.5,0.7
		c0.3,0,0.6-0.1,0.8-0.3c0.2-0.2,0.3-0.5,0.4-0.8c0.1-0.2,0.1-0.3,0.2-0.5C97.3,128.8,97.5,128.4,97.4,128.3z"/>
	<path id="XMLID_122_" class="st9" d="M106.6,119.8c0-0.1-0.1-0.1-0.1-0.1c0-0.2-0.1-0.4-0.3-0.4c0,0-0.3-0.1-0.4-0.1
		c-0.2-0.1-0.4-0.1-0.6,0c-0.1,0-0.5,0.2-0.6,0.2c-0.3,0.2-0.4,0.4-0.6,0.7c-0.1,0.2-0.2,0.5,0.1,0.6c0.5,0.2,1,0.6,1.5,0.4
		c0.2,0,0.4-0.1,0.5-0.2c0.1-0.1,0.2-0.3,0.3-0.5c0.1-0.1,0.1-0.2,0.1-0.3C106.5,120.1,106.6,119.8,106.6,119.8z"/>
	<path id="XMLID_121_" class="st9" d="M123.9,111.9c0,0,0-0.1-0.1-0.1c0-0.2-0.1-0.3-0.2-0.3c0,0-0.2-0.1-0.3-0.1
		c-0.1,0-0.3,0-0.4,0c-0.1,0-0.4,0.1-0.4,0.2c-0.2,0.1-0.3,0.3-0.5,0.5c-0.1,0.1-0.1,0.4,0.1,0.4c0.3,0.2,0.7,0.4,1.1,0.3
		c0.1,0,0.3-0.1,0.3-0.1c0.1-0.1,0.2-0.2,0.2-0.4c0.1-0.1,0.1-0.1,0.1-0.2C123.8,112.1,123.9,111.9,123.9,111.9z"/>
	<path id="XMLID_120_" class="st9" d="M151.1,118.8c0,0,0-0.1-0.1-0.1c0-0.2-0.1-0.3-0.2-0.3c0,0-0.2-0.1-0.3-0.1
		c-0.1,0-0.3,0-0.4,0c-0.1,0-0.4,0.1-0.4,0.2c-0.2,0.1-0.3,0.3-0.5,0.5c-0.1,0.1-0.1,0.4,0.1,0.4c0.3,0.2,0.7,0.4,1.1,0.3
		c0.1,0,0.3-0.1,0.3-0.1c0.1-0.1,0.2-0.2,0.2-0.4c0.1-0.1,0.1-0.1,0.1-0.2C151,119,151.1,118.9,151.1,118.8z"/>
	<path id="XMLID_119_" class="st9" d="M189.5,120.9c0,0,0-0.1-0.1-0.1c0-0.2-0.1-0.3-0.2-0.3c0,0-0.2-0.1-0.3-0.1
		c-0.1,0-0.3,0-0.4,0c-0.1,0-0.4,0.1-0.4,0.2c-0.2,0.1-0.3,0.3-0.5,0.5c-0.1,0.1-0.1,0.4,0.1,0.4c0.3,0.2,0.7,0.4,1.1,0.3
		c0.1,0,0.3-0.1,0.3-0.1c0.1-0.1,0.2-0.2,0.2-0.4c0.1-0.1,0.1-0.1,0.1-0.2C189.4,121.1,189.5,120.9,189.5,120.9z"/>
	<path id="XMLID_118_" class="st9" d="M240.5,126c0,0-5.3,5.3-7.1,4.4c0,0,9.3,5,19.4-3.5L240.5,126z"/>
	<g id="XMLID_115_">
		<path id="XMLID_117_" class="st9" d="M239.9,121.3c0,0-1.5,0.7-3.6,2c-1,0.6-2.3,1.4-3.5,2.2c-1.3,0.8-2.6,1.8-3.7,2.9
			c-0.5,0.5-1.1,1.2-1.2,1.7c0,0.1,0,0.2,0,0.3c0,0.1,0.1,0.2,0.2,0.3c0.2,0.2,0.4,0.3,0.6,0.3c0.6,0.1,1.2,0,1.8-0.2
			c0.3-0.1,0.6-0.2,0.9-0.3c0.3-0.1,0.6-0.2,0.9-0.3c1.1-0.4,2-0.9,2.6-1.2c0.6-0.3,1-0.5,1-0.5l0.1,0.1c0,0-0.3,0.3-0.8,0.8
			c-0.3,0.3-0.6,0.5-1,0.8c-0.4,0.3-0.9,0.6-1.4,1c-0.5,0.3-1.1,0.6-1.9,0.9c-0.7,0.3-1.5,0.5-2.5,0.3c-0.9-0.2-2.1-1.1-1.7-2.4
			c0.3-1.1,1-1.6,1.6-2.2c1.3-1.1,2.7-2,4-2.7c1.3-0.8,2.6-1.4,3.7-2c2.2-1.1,3.7-1.7,3.7-1.7L239.9,121.3z"/>
	</g>
	<g id="XMLID_112_">
		<path id="XMLID_308_" class="st9" d="M209.4,111.6c-1.9,2.3-3.5,4.9-4.7,7.5c-1.2,2.7-2.2,5.5-2.3,8.3c-0.1,1.4,0.1,2.8,0.4,4.1
			c0.4,1.3,1,2.6,1.8,3.7c0.8,1.1,1.7,2.1,2.8,3.1c1,0.9,2.2,1.8,3.4,2.6l0.3,0.2l0.1,0.2c0.1,0.1,0.2,0.3,0.3,0.5
			c0.1,0.2,0.2,0.4,0.4,0.5c0.3,0.3,0.6,0.7,0.9,0.9c0.2,0.1,0.4,0.3,0.5,0.4c0.2,0.1,0.4,0.2,0.6,0.3c0.2,0.1,0.4,0.2,0.7,0.2
			c0.2,0.1,0.5,0.1,0.7,0.1l0.1,0.3c-0.2,0.1-0.5,0.2-0.8,0.2c-0.3,0.1-0.5,0.1-0.8,0.1c-0.3,0-0.6,0-0.8-0.1
			c-0.3-0.1-0.6-0.1-0.8-0.3c-0.5-0.2-1-0.5-1.5-0.9c-0.2-0.2-0.4-0.4-0.6-0.6c-0.2-0.2-0.4-0.4-0.6-0.7l0.4,0.4
			c-0.7-0.3-1.4-0.7-2.1-1.1c-0.7-0.4-1.3-0.8-2-1.4c-1.3-1-2.4-2.2-3.2-3.6c-1.7-2.8-2.3-6.2-1.9-9.3c0.4-3.1,1.6-6.1,3.1-8.7
			c1.5-2.6,3.4-5.1,5.5-7.2L209.4,111.6z"/>
	</g>
	<g id="XMLID_109_">
		<path id="XMLID_111_" class="st9" d="M212.6,118.2c-0.3,0.8-0.5,1.5-0.6,2.3c-0.2,0.8-0.3,1.6-0.4,2.4c-0.1,0.8-0.2,1.6-0.2,2.4
			c0,0.4,0,0.8,0,1.2l0.1,1.2l0.2,1.1c0.1,0.4,0.2,0.7,0.3,1.1c0.1,0.4,0.2,0.7,0.4,1.1c0.2,0.3,0.3,0.7,0.5,1l0.6,1
			c0.2,0.3,0.5,0.6,0.7,0.9l0.4,0.4l0.4,0.4l0.8,0.7l-0.2-0.1c1.1,0.4,2.2,0.7,3.4,1c0.6,0.1,1.1,0.2,1.6,0.2c0.3,0,0.5,0,0.7,0
			c0.1,0,0.2,0,0.2-0.1c0.1,0,0-0.1,0.1,0l-0.6,0.9l0-1.2l-0.1-1.2c-0.1-0.8-0.2-1.6-0.3-2.4c-0.1-0.4-0.2-0.8-0.2-1.1
			c-0.1-0.4-0.2-0.7-0.4-1c-0.1-0.2-0.1-0.3-0.2-0.5c-0.1-0.1-0.2-0.3-0.3-0.4c-0.1-0.1-0.2-0.3-0.3-0.4c-0.1-0.1-0.2-0.2-0.4-0.3
			l-0.5-0.4l0-0.2c-0.1-0.6-0.1-1.2-0.1-1.8c0-0.6,0-1.2,0.1-1.8c0.1-1.2,0.3-2.4,0.9-3.4l0.2,0.1c-0.1,1.1,0,2.2,0.2,3.3
			c0.1,0.5,0.2,1.1,0.3,1.6c0.1,0.5,0.3,1.1,0.4,1.6L220,127l0.7,0.4c0.2,0.2,0.4,0.4,0.6,0.5c0.2,0.2,0.4,0.4,0.5,0.6
			c0.2,0.2,0.3,0.4,0.4,0.7c0.3,0.4,0.5,0.9,0.6,1.4c0.2,0.5,0.3,0.9,0.4,1.4c0.2,0.9,0.3,1.9,0.4,2.8c0,0.5,0,0.9,0,1.4
			c0,0.5-0.1,0.9-0.1,1.4l-0.1,0.7l-0.5,0.2c-0.3,0.1-0.6,0.3-0.8,0.3c-0.2,0-0.5,0.1-0.7,0.1c-0.4,0-0.8,0-1.1-0.1
			c-0.7-0.1-1.3-0.3-1.9-0.4c-1.2-0.4-2.4-0.8-3.6-1.3l-0.2-0.1l-0.1-0.1l-0.9-0.9l-0.5-0.5l-0.4-0.5c-0.3-0.4-0.5-0.7-0.8-1.1
			l-0.6-1.2c-0.2-0.4-0.3-0.8-0.5-1.2c-0.2-0.4-0.3-0.8-0.4-1.2c-0.1-0.4-0.2-0.8-0.3-1.3l-0.1-1.3l0-1.3c0-0.4,0.1-0.8,0.1-1.3
			c0.1-0.8,0.2-1.7,0.4-2.5c0.3-1.6,0.8-3.2,1.5-4.7L212.6,118.2z"/>
	</g>
	<path id="XMLID_108_" class="st14" d="M16.5,126.4"/>
	<path id="XMLID_107_" class="st14" d="M11.3,136.3"/>
	<g id="XMLID_104_">
		<path id="XMLID_178_" class="st9" d="M234.4,121.3c0,0-0.5,0.4-1.4,0.7c-0.4,0.2-1,0.3-1.6,0.3c-0.6,0-1.2-0.1-1.9-0.2
			c-0.3-0.1-0.6-0.1-0.9-0.3c-0.3-0.1-0.6-0.3-0.9-0.4c-0.3-0.1-0.5-0.3-0.7-0.5c-0.2-0.2-0.4-0.4-0.5-0.6c-0.1-0.2-0.2-0.4-0.3-0.6
			c-0.1-0.2-0.1-0.3-0.2-0.5c-0.1-0.3-0.1-0.4-0.1-0.4l0.1,0c0,0,0.1,0.1,0.2,0.4c0.1,0.1,0.1,0.3,0.2,0.4c0.1,0.1,0.3,0.3,0.4,0.4
			c0.2,0.1,0.4,0.3,0.5,0.4c0.2,0.1,0.4,0.2,0.7,0.3c0.3,0.1,0.5,0.2,0.8,0.2c0.3,0.1,0.5,0.1,0.8,0.1c0.6,0,1.1-0.1,1.7-0.1
			c0.5,0,1,0,1.5,0c0.9,0,1.5,0.1,1.5,0.1L234.4,121.3z"/>
	</g>
	<g id="XMLID_13_">
		<path id="XMLID_33_" class="st9" d="M146.2,144.4c-0.3,2.2-0.8,4.3-1.4,6.5c-0.3,1.1-0.6,2.1-1,3.2s-0.8,2.1-1.2,3.1
			c-0.9,2-2,4.1-3.4,5.9c-0.4,0.5-0.7,0.9-1.1,1.4c-0.4,0.4-0.8,0.9-1.3,1.2c-0.5,0.4-1,0.7-1.5,1.1l-0.8,0.4l-0.9,0.4l-0.7,0.3
			l-0.6-0.6c-0.4-0.4-0.6-0.7-0.9-1c-0.3-0.4-0.6-0.7-0.9-1.1c-0.5-0.7-1-1.5-1.5-2.2c-0.9-1.5-1.8-3.1-2.5-4.8
			c-0.4-0.8-0.7-1.7-1-2.5c-0.3-0.9-0.6-1.7-0.8-2.6c-0.4-1.7-0.8-3.5-0.9-5.3l0-0.2l0-0.1c0.1-0.3,0.1-0.5,0.2-0.7
			c0.1-0.2,0.2-0.4,0.2-0.6c0.2-0.4,0.4-0.8,0.7-1.2c0.3-0.4,0.7-0.7,1.1-0.9c0.4-0.2,0.9-0.3,1.4-0.3l0.1,0l0.1,0
			c0.9,0.4,1.9,0.6,2.8,0.8c0.5,0.1,1,0.1,1.5,0.1c0.5,0,1-0.1,1.4-0.4c-0.8,0.7-1.9,0.9-3,0.9c-1.1,0-2.1-0.1-3.1-0.4l0.2,0
			c-0.6,0.1-1.1,0.5-1.5,1c-0.2,0.3-0.3,0.6-0.4,0.9c-0.1,0.2-0.1,0.3-0.1,0.5c0,0.2-0.1,0.4-0.1,0.5v-0.2c0.3,1.7,0.8,3.3,1.3,4.9
			c0.3,0.8,0.6,1.6,0.9,2.4c0.3,0.8,0.7,1.6,1,2.3c0.7,1.5,1.5,3,2.5,4.4c0.5,0.7,0.9,1.4,1.5,2c0.3,0.3,0.5,0.7,0.8,1
			c0.3,0.3,0.5,0.6,0.8,0.9l-1.3-0.3l0.6-0.2l0.6-0.3c0.4-0.2,0.8-0.5,1.2-0.8c0.4-0.3,0.8-0.6,1.1-1c0.4-0.4,0.7-0.7,1-1.1
			c0.7-0.8,1.3-1.7,1.8-2.5c0.6-0.9,1.1-1.8,1.6-2.8C143,152.5,144.6,148.5,146.2,144.4z"/>
	</g>
	<path id="XMLID_102_" class="st15" d="M130.3,150.9"/>
	<g id="XMLID_99_">
		<path id="XMLID_101_" class="st9" d="M130.3,163c0,0,0.6-0.5,1.6-1.4c0.9-0.8,2.1-2,3.3-3.2c1.1-1.2,2.1-2.6,2.8-3.6
			c0.2-0.3,0.3-0.5,0.4-0.8c0.1-0.2,0.2-0.4,0.3-0.6c0.1-0.3,0.2-0.5,0.2-0.5s-0.1,0.2-0.2,0.6c-0.1,0.2-0.1,0.4-0.2,0.6
			c-0.1,0.2-0.2,0.5-0.3,0.8c-0.5,1.1-1.5,2.6-2.5,4c-2,2.7-4.5,5.1-4.5,5.1c-0.3,0.3-0.6,0.2-0.9,0C130,163.7,130,163.3,130.3,163
			C130.3,163,130.3,163,130.3,163z"/>
	</g>
	<g id="XMLID_96_">
		<path id="XMLID_98_" class="st9" d="M126.9,155.1c0,0,0.1,0,0.4,0.1s0.6,0.1,1.1,0.1c0.4,0,1-0.1,1.5-0.3c0.6-0.2,1.1-0.4,1.7-0.7
			c0.3-0.2,0.6-0.3,0.8-0.5s0.5-0.3,0.7-0.5c0.5-0.4,0.9-0.8,1.2-1.1c0.4-0.3,0.6-0.7,0.8-0.9c0.2-0.2,0.3-0.3,0.3-0.3
			s-0.1,0.1-0.3,0.4c-0.2,0.2-0.4,0.6-0.7,1c-0.3,0.4-0.7,0.8-1.1,1.3c-0.2,0.2-0.5,0.4-0.7,0.7c-0.2,0.2-0.5,0.4-0.8,0.6
			c-0.5,0.4-1.1,0.7-1.7,1c-0.6,0.3-1.2,0.4-1.7,0.5c-0.5,0.1-1,0.1-1.3,0.1c-0.3,0-0.6-0.1-0.5-0.1L126.9,155.1z"/>
	</g>
	<g id="XMLID_10_">
		<path id="XMLID_35_" class="st9" d="M95.9,140.1c-0.7,1.3-1.4,2.6-2.3,3.9c-0.8,1.3-1.8,2.5-2.7,3.6c-0.5,0.6-1,1.1-1.5,1.7
			c-0.5,0.5-1.1,1.1-1.6,1.6c-0.6,0.5-1.1,1-1.7,1.5c-0.6,0.5-1.2,0.9-1.8,1.4l0.2-0.2c-0.8,0.8-1.5,1.6-2.4,2.3
			c-0.4,0.4-0.9,0.7-1.5,1c-0.3,0.2-0.6,0.3-0.9,0.4c-0.4,0.1-0.8,0.3-1.5,0.1c0.1,0-0.5-0.2-0.6-0.3c-0.2-0.2-0.3-0.3-0.4-0.5
			c-0.2-0.3-0.2-0.5-0.3-0.8c-0.1-0.4-0.1-0.7-0.1-1c0-0.6,0.1-1.1,0.1-1.7c0.1-1.1,0.2-2.1,0.3-3.1l0.1,0.5
			c-0.2-0.6-0.4-1.2-0.7-1.8c-0.3-0.6-0.5-1.2-0.8-1.8c-0.6-1.2-1.2-2.4-2-3.5c-0.4-0.6-0.7-1.1-1.2-1.6c-0.4-0.5-0.8-1-1.3-1.5
			l-0.3-0.4c-0.2-0.2-0.3-0.3-0.4-0.5c-0.3-0.3-0.5-0.7-0.6-1.2c-0.2-0.5-0.1-1.2,0.3-1.6c0.3-0.4,0.8-0.6,1.1-0.8l0.5,0
			c-0.2-0.1-0.1,0-0.1,0c0,0,0,0,0,0h0.1h0.2l0.4,0l0.8-0.1l1.6-0.2l3.2-0.4c-1,0.4-2,0.7-3.1,1.1c-0.5,0.2-1,0.3-1.6,0.5l-0.8,0.2
			l-0.4,0.1l-0.2,0l-0.1,0h-0.1c-0.1,0,0,0-0.2,0l0.5,0c-0.3,0.1-0.5,0.3-0.5,0.5c-0.1,0.1-0.1,0.2,0,0.4c0.1,0.2,0.2,0.4,0.4,0.6
			c0.1,0.1,0.2,0.2,0.3,0.3l0.4,0.4c0.6,0.5,1.1,1,1.6,1.5c0.5,0.5,1,1.1,1.4,1.7c0.9,1.2,1.6,2.4,2.3,3.7c0.3,0.6,0.7,1.3,0.9,2
			l0.4,1c0.1,0.3,0.3,0.7,0.4,1.1l0.1,0.2l0,0.3c-0.1,1.1-0.2,2.2-0.3,3.2c-0.1,0.5-0.1,1-0.1,1.5c0,0.2,0,0.4,0,0.5
			c0,0.1,0,0.1,0,0c0,0-0.1-0.1-0.2-0.2c0,0-0.1-0.1-0.2-0.1c0,0-0.1,0-0.1,0l0.1,0c-0.3-0.1-0.1,0,0-0.1c0.1,0,0.3-0.1,0.5-0.2
			c0.4-0.2,0.8-0.5,1.1-0.8c0.8-0.6,1.6-1.3,2.2-2l0.1-0.1l0.1-0.1c0.6-0.4,1.2-0.8,1.8-1.2c0.6-0.4,1.2-0.9,1.7-1.3
			c1.1-0.9,2.2-1.9,3.3-2.9C91.9,144.5,93.9,142.4,95.9,140.1z"/>
	</g>
	<g id="XMLID_90_">
		<polygon id="XMLID_151_" class="st9" points="72.4,139.5 77.6,138.9 73.3,141.9 		"/>
	</g>
	<path id="XMLID_89_" class="st16" d="M76.6,145.6"/>
	<g id="XMLID_82_">
		<polygon id="XMLID_95_" class="st9" points="76,144.4 84.6,141.7 77.1,146.7 		"/>
	</g>
	<path id="XMLID_79_" class="st16" d="M77.6,150.1"/>
	<g id="XMLID_76_">
		<polygon id="XMLID_92_" class="st9" points="77.2,149 88.4,143.7 78.5,151.2 		"/>
	</g>
	<g id="XMLID_73_">
		<path id="XMLID_162_" class="st9" d="M55.1,132.4c0,0,1.5-0.7,3.8-1.6c2.3-0.9,5.4-2,8.6-2.8c0.8-0.2,1.6-0.4,2.4-0.6
			c0.8-0.2,1.6-0.3,2.4-0.4c0.8-0.1,1.5-0.2,2.2-0.3c0.7,0,1.4-0.1,2-0.1c0.6,0,1.2,0,1.7,0c0.5,0,0.9,0.1,1.3,0.1
			c0.7,0.1,1.1,0.1,1.1,0.1s-0.4,0-1.1,0c-0.4,0-0.8,0-1.3,0c-0.5,0-1,0.1-1.7,0.1c-0.6,0.1-1.3,0.2-1.9,0.3
			c-0.7,0.2-1.4,0.3-2.1,0.5c-0.7,0.2-1.5,0.4-2.2,0.6c-0.8,0.3-1.5,0.5-2.3,0.8c-3,1.1-6,2.5-8.1,3.6c-2.2,1.1-3.5,1.9-3.5,1.9
			L55.1,132.4z"/>
	</g>
	<g id="XMLID_69_">
		<path id="XMLID_72_" class="st9" d="M83.1,132c0,0,6,1,14.9,2.6c4.5,0.8,9.7,1.6,15.3,2.5s11.5,1.8,17.5,2.6
			c6,0.9,11.9,1.6,17.6,2.2c2.8,0.3,5.5,0.5,8.1,0.7c2.6,0.2,5,0.3,7.3,0.4c2.3,0.1,4.3,0.1,6.2,0c1.8-0.1,3.4-0.2,4.7-0.4
			c1.3-0.2,2.3-0.4,3-0.6c0.7-0.2,1-0.3,1-0.3s-0.4,0.1-1,0.4c-0.7,0.3-1.7,0.5-3,0.8c-1.3,0.2-2.9,0.5-4.7,0.6
			c-1.8,0.2-3.9,0.3-6.2,0.3c-2.3,0-4.7-0.1-7.3-0.2c-2.6-0.1-5.3-0.3-8.2-0.5c-5.6-0.5-11.6-1.2-17.6-2c-6-0.9-11.9-1.8-17.5-2.8
			c-5.6-1-10.8-2-15.2-2.9c-4.4-0.9-8.1-1.8-10.7-2.3C84.6,132.4,83.1,132,83.1,132z"/>
	</g>
	<g id="XMLID_6_">
		<path id="XMLID_84_" class="st9" d="M181.1,147.8c0,0,1-0.7,2.5-1.5c1.6-0.8,3.7-1.8,5.9-2.5c0.6-0.2,1.1-0.3,1.7-0.5
			c0.6-0.1,1.1-0.2,1.7-0.3c0.5-0.1,1.1-0.1,1.6-0.2c0.5,0,1,0,1.4,0c0.4,0,0.8,0.1,1.2,0.1c0.4,0,0.6,0.1,0.9,0.2
			c0.5,0.1,0.8,0.2,0.8,0.2s-0.3,0-0.8-0.1c-0.3,0-0.5-0.1-0.9-0.1c-0.3,0-0.7,0-1.2,0c-0.4,0-0.9,0.1-1.4,0.2
			c-0.5,0.1-1,0.2-1.5,0.3c-0.5,0.1-1,0.3-1.6,0.5c-0.5,0.2-1,0.4-1.6,0.6c-2.1,0.9-4,2-5.4,2.9c-1.4,0.9-2.2,1.6-2.2,1.6
			c-0.4,0.3-1,0.3-1.3-0.1C180.6,148.8,180.6,148.2,181.1,147.8C181,147.8,181.1,147.8,181.1,147.8L181.1,147.8z"/>
	</g>
	<g id="XMLID_3_">
		<path id="XMLID_78_" class="st9" d="M178.2,153.8c0,0,3.4-1.7,6.9-3.1c1.7-0.7,3.5-1.4,4.9-1.8c0.3-0.1,0.7-0.2,0.9-0.3
			c0.3-0.1,0.5-0.1,0.7-0.1c0.2-0.1,0.4,0,0.5,0c0.1,0,0.2,0,0.2,0s-0.1,0-0.2,0c-0.1,0-0.3,0-0.5,0.1c-0.2,0.1-0.4,0.1-0.7,0.2
			c-0.3,0.1-0.6,0.2-0.9,0.4c-1.3,0.6-2.9,1.5-4.6,2.4c-3.2,1.9-6.4,3.9-6.4,3.9c-0.4,0.3-1,0.2-1.3-0.3c-0.3-0.4-0.2-1,0.3-1.3
			C178.1,153.9,178.1,153.9,178.2,153.8z"/>
	</g>
	<path id="XMLID_2_" class="st9" d="M51.8,129.9c-0.1-0.1-0.1-0.2-0.1-0.2c0-0.3-0.2-0.7-0.6-0.7c-0.1,0-0.5-0.1-0.6-0.2
		c-0.3-0.1-0.6-0.1-0.9,0c-0.2,0-0.8,0.3-1,0.4c-0.5,0.3-0.7,0.7-1.1,1.2c-0.2,0.3-0.3,0.8,0.1,1c0.8,0.4,1.6,0.9,2.5,0.7
		c0.3,0,0.6-0.1,0.8-0.3c0.2-0.2,0.3-0.5,0.4-0.8c0.1-0.2,0.1-0.3,0.2-0.5C51.7,130.4,51.9,130.1,51.8,129.9z"/>
	<g id="XMLID_303_">
		<path id="XMLID_310_" class="st9" d="M226,108.6c0,0,0,0.7-0.2,1.5c-0.1,0.4-0.3,0.8-0.5,1.1c-0.3,0.3-0.7,0.6-1,0.9
			c-0.6,0.7-1.1,1.4-1.4,2c-0.1,0.3-0.2,0.6-0.3,0.8c0,0.2-0.1,0.3-0.1,0.3l-0.3,0.1c0,0-0.1-0.1-0.1-0.3c-0.1-0.1-0.1-0.3-0.1-0.4
			c0-0.2-0.1-0.4-0.1-0.6c0-0.4,0-0.9,0.1-1.4c0.1-0.5,0.3-1,0.5-1.5s0.4-1,0.6-1.5c0.3-0.4,0.7-0.7,1.1-0.8
			c0.8-0.4,1.5-0.3,1.5-0.3L226,108.6z"/>
	</g>
	<path id="XMLID_113_" class="st9" d="M218,111.6c0-0.1-0.1-0.1-0.1-0.1c0-0.2-0.1-0.4-0.3-0.4c0,0-0.3-0.1-0.4-0.1
		c-0.2-0.1-0.4-0.1-0.6,0c-0.1,0-0.5,0.2-0.6,0.2c-0.3,0.2-0.4,0.4-0.6,0.7c-0.1,0.2-0.2,0.5,0.1,0.6c0.5,0.2,1,0.6,1.5,0.4
		c0.2,0,0.4-0.1,0.5-0.2c0.1-0.1,0.2-0.3,0.3-0.5c0.1-0.1,0.1-0.2,0.1-0.3C217.9,111.9,218,111.7,218,111.6z"/>
	<g id="XMLID_160_">
		<path id="XMLID_318_" class="st9" d="M70.6,110.2c0,0-1.8,1-4.7,2c-1.4,0.5-3.1,1-5,1.5c-0.9,0.2-1.9,0.4-2.9,0.5
			c-1,0.1-2,0.3-3,0.4c-2,0.3-4,0.5-5.9,0.6c-0.9,0.1-1.9,0.1-2.7,0.1c-0.9,0-1.7,0-2.5-0.1c-0.8,0-1.5-0.1-2.1-0.2
			c-0.6-0.1-1.1-0.2-1.6-0.3c-0.9-0.2-1.4-0.3-1.4-0.3l0.1-0.2c0,0,0.5,0.1,1.4,0.2c0.4,0.1,1,0.1,1.6,0.1c0.6,0,1.3,0.1,2,0
			c0.7,0,1.6-0.1,2.4-0.2c0.9-0.1,1.8-0.2,2.7-0.3c1.9-0.2,3.8-0.6,5.8-1c2-0.4,3.9-0.9,5.7-1.4c1.8-0.4,3.6-0.7,5-1
			c3-0.5,5-0.7,5-0.7L70.6,110.2z"/>
	</g>
	<path id="XMLID_4_" class="st9" d="M62.1,118.8c0-0.1-0.1-0.1-0.1-0.1c0-0.2-0.1-0.4-0.3-0.4c0,0-0.3-0.1-0.4-0.1
		c-0.2-0.1-0.4-0.1-0.6,0c-0.1,0-0.5,0.2-0.6,0.2c-0.3,0.2-0.4,0.4-0.6,0.7c-0.1,0.2-0.2,0.5,0.1,0.6c0.5,0.2,1,0.6,1.5,0.4
		c0.2,0,0.4-0.1,0.5-0.2c0.1-0.1,0.2-0.3,0.3-0.5c0.1-0.1,0.1-0.2,0.1-0.3C62,119.2,62.1,118.9,62.1,118.8z"/>
</g>
</svg>
