<?xml version="1.0" ?><!DOCTYPE svg  PUBLIC '-//W3C//DTD SVG 1.1//EN'  'http://www.w3.org/Graphics/SVG/1.1/DTD/svg11.dtd'><svg enable-background="new 0 0 512 512" version="1.1" viewBox="0 0 512 512" xml:space="preserve" xmlns="http://www.w3.org/2000/svg" xmlns:xlink="http://www.w3.org/1999/xlink"><g id="Layer_1"><circle cx="256" cy="256" fill="#BB0000" r="238.2"/></g><g id="Layer_2"><g id="Layer_2_1_"><path d="M255.4,364.6c-33.5,0.1-67-0.3-100.4-2.1    c-10.8-0.7-21.7-1.5-31.6-6.9c-6.6-3.6-11.7-8.5-15-15.6c-5.4-11.7-7.1-24-8.1-36.6c-2.2-25.9-2.2-51.9-1.1-77.8    c0.5-13.7,1-27.7,4.3-41.2c1.2-5.2,3-10.4,5.5-15.4c5.8-11.5,15.8-17.3,28-19.6c10.2-2.1,20.6-1.9,31-2.3    c35.1-1.5,70.4-2.2,105.5-1.8c27,0.3,54.2,1,81.4,2.3c8.4,0.4,16.7,0.5,24.7,3.6c10.8,4,18.8,10.8,23.2,21.8    c4.3,10.6,5.9,21.5,6.7,32.8c2.5,30.6,2.5,61.1,0.5,91.6c-0.7,10.3-1.4,20.6-4.1,30.7c-6,23.2-20.6,32.4-42,33.7    c-22.8,1.5-45.5,2.3-68.3,2.6C282.3,364.8,268.9,364.6,255.4,364.6z M222.5,300.4c30.5-16.6,60.5-33.1,91-49.8    c-30.6-16.7-60.6-33.2-91-49.8C222.5,234.2,222.5,267.1,222.5,300.4z" fill="none" stroke="#FAFAFA" stroke-miterlimit="10" stroke-width="15"/><path d="M222.5,300.4c0-33.3,0-66.1,0-99.6    c30.3,16.6,60.4,33.1,91,49.8C282.9,267.4,252.8,283.7,222.5,300.4z" fill="none" stroke="#FAFAFA" stroke-miterlimit="10" stroke-width="15"/></g></g></svg>